<?xml version="1.0" encoding="UTF-8" standalone="no"?>
<!-- Created with Inkscape (http://www.inkscape.org/) -->

<svg
   xmlns:dc="http://purl.org/dc/elements/1.1/"
   xmlns:cc="http://creativecommons.org/ns#"
   xmlns:rdf="http://www.w3.org/1999/02/22-rdf-syntax-ns#"
   xmlns:svg="http://www.w3.org/2000/svg"
   xmlns="http://www.w3.org/2000/svg"
   xmlns:sodipodi="http://sodipodi.sourceforge.net/DTD/sodipodi-0.dtd"
   xmlns:inkscape="http://www.inkscape.org/namespaces/inkscape"
   id="svg3052"
   version="1.1"
   inkscape:version="0.48.4 r9939"
   width="2552"
   height="729"
   sodipodi:docname="path3049.svg.png">
  <metadata
     id="metadata3058">
    <rdf:RDF>
      <cc:Work
         rdf:about="">
        <dc:format>image/svg+xml</dc:format>
        <dc:type
           rdf:resource="http://purl.org/dc/dcmitype/StillImage" />
        <dc:title></dc:title>
      </cc:Work>
    </rdf:RDF>
  </metadata>
  <defs
     id="defs3056" />
  <sodipodi:namedview
     pagecolor="#ffffff"
     bordercolor="#666666"
     borderopacity="1"
     objecttolerance="10"
     gridtolerance="10"
     guidetolerance="10"
     inkscape:pageopacity="0"
     inkscape:pageshadow="2"
     inkscape:window-width="1920"
     inkscape:window-height="1056"
     id="namedview3054"
     showgrid="false"
     inkscape:zoom="0.45768025"
     inkscape:cx="1160.333"
     inkscape:cy="670.59122"
     inkscape:window-x="0"
     inkscape:window-y="24"
     inkscape:window-maximized="1"
     inkscape:current-layer="svg3052" />
  <path
     style="fill:#000000"
     d="m 366.73972,390.65968 c 0,-186.0871 0.29567,-345.837103 0.65704,-355.000003 l 0.65704,-16.6597 44.34296,0 44.34296,0 0,355.000003 0,355 -45,0 -45,0 0,-338.3403 z m 205,-17.1597 0,-355.500003 44.8426,0 44.8426,0 0.65434,17.25 c 0.35989,9.4875 0.65572,169.462503 0.6574,355.500003 l 0.003,338.25 -45.5,0 -45.5,0 0,-355.5 z m 670.99998,0 0,-355.500003 41.75,0.043 c 56.7253,0.058 101.6102,1.4367 111.75,3.4332 38.1176,7.5053 71.0949,22.5199 99.89,45.4798 52.268,41.676103 83.6581,106.033503 83.6001,171.400503 -0.052,58.8107 -14.5447,111.2838 -44.4718,161.0194 -14.4261,23.9746 -25.3166,37.7524 -50.8977,64.3912 -8.5913,8.9466 -15.6206,16.4979 -15.6206,16.7806 0,0.2826 1.6869,1.9627 3.7487,3.7334 24.1498,20.7404 40.9394,47.9067 47.9874,77.6454 1.3223,5.5793 1.6239,18.7173 1.9929,86.824 l 0.4349,80.25 -40.0819,0 -40.082,0 -0.027,-68.25 c -0.015,-37.5375 -0.4361,-72.4795 -0.9361,-77.649 -0.6961,-7.1973 -1.6195,-10.8422 -3.9418,-15.5595 -6.4673,-13.137 -19.7062,-25.5109 -32.7548,-30.6146 -4.9475,-1.9351 -7.7509,-2.29 -18.3402,-2.3221 -12.4887,-0.038 -12.518,-0.032 -32.5,6.0536 l -20,6.0913 -0.6415,5.8752 c -0.3528,3.2313 -0.6903,44.2376 -0.75,91.1251 l -0.1086,85.25 -45,0 -45,0 0,-355.5 z m 113.5671,65.4192 c 34.8852,-15.2994 67.4171,-43.6588 91.1041,-79.4192 26.3686,-39.8087 39.4188,-87.0616 36.3175,-131.5 -1.9946,-28.5796 -14.0657,-54.1215 -35.9172,-75.9987 -10.923,-10.9359 -18.6291,-16.6586 -32.113,-23.8477 -19.5308,-10.4132 -36.6958,-14.1536 -64.9519,-14.1536 l -17.0066,0 0,166.9914 0,166.9914 6.7041,-2.5234 c 3.6872,-1.3878 10.8255,-4.3309 15.863,-6.5402 z m 922.1829,289.3346 c -5.9125,-0.1768 -10.75,-0.7447 -10.75,-1.262 0,-0.9077 57.2052,-215.0076 129.9334,-486.2967 19.2866,-71.9427 35.0666,-131.0052 35.0666,-131.25 0,-0.2448 -38.25,-0.4451 -85,-0.4451 l -85,0 0,-45.526103 0,-45.5262 143.4169,0.2762 c 78.8793,0.1519 143.6617,0.521 143.9609,0.8203 0.2992,0.2993 -29.5939,113.024403 -66.4292,250.500003 -36.8352,137.4757 -73.9971,276.1888 -82.582,308.2514 -8.5849,32.0625 -15.2921,58.6125 -14.905,59 0.3872,0.3874 33.2917,0.8337 73.1212,0.9917 l 72.4172,0.2873 0,45.4627 0,45.4627 -121.25,-0.2124 c -66.6875,-0.1168 -126.0875,-0.357 -132,-0.5338 z m -2279.0482885,-2.221 c 0.7317305,-2.7981 0.9606505,-2.9237 20.1836905,-11.0691 35.86678,-15.1978 61.92151,-32.4797 84.614618,-56.1242 22.98525,-23.9488 37.60286,-51.4353 43.66798,-82.1117 2.8329,-14.3284 3.05632,-39.9309 0.48195,-55.2278 -4.43407,-26.3472 -15.37124,-54.443 -31.92109,-82 -7.82679,-13.0323 -12.63655,-19.6429 -32.971298,-45.3165 -25.80765,-32.5834 -36.10003,-48.4315 -46.58203,-71.7268 -18.20685,-40.4631 -26.15155,-75.9882 -26.15572,-116.9567 -0.005,-52.2563 13.51001,-93.2446 43.03061,-130.500003 16.55741,-20.8957 47.417688,-44.077 73.949598,-55.5487 10.27738,-4.4436 28.09562,-10.5582003 40.43081,-13.8744003 11.01614,-2.9616 26.44538,-6.034 27.08575,-5.3936 0.83601,0.836 -14.53772,92.1411003 -16.57323,98.4289003 -0.87187,2.693303 -2.58487,3.881903 -12.72541,8.829603 -28.46213,13.887 -44.69214,29.1535 -55.22062,51.9424 -17.18679,37.2007 -11.53386,80.673 16.91969,130.1158 7.89589,13.7205 15.70402,25.0391 33.11263,48 22.96738,30.2926 36.84085,52.1681 51.05322,80.5 21.17535,42.2124 30.29288,74.4089 33.05405,116.7227 4.58946,70.3317 -18.26687,130.5111 -69.51433,183.0273 l -10.00235,10.25 -83.216478,0 c -82.2622405,0 -83.2105905,-0.023 -82.7020405,-1.9672 z M 783.79374,589.24998 c 0.0785,-201.6057 0.57992,-212.7264 12.04022,-267.0304 19.15811,-90.7796 63.58617,-170.5794 123.40577,-221.6561 55.226,-47.154603 112.92017,-71.731603 186.71057,-79.536403 5.3408,-0.5649 11.0783,-1.0271 12.75,-1.0271 l 3.0394,0 0,354.000003 0,354 -45,0 -45,0 0,-94 0,-94 -78.49997,0 -78.5,0 0,94 0,94 -45.50001,0 -45.5,0 0.054,-138.75 z m 247.94226,-282.5 c 0,-78.2375 -0.2958,-148.6365 -0.6529,-156.4423 l -0.6493,-14.1923 -4.097,2.0702 c -5.4753,2.7666 -27.1408,17.5424 -37.09707,25.3001 -23.9774,18.6824 -49.9843,47.4011 -65.3271,72.1387 -6.4176,10.3473 -19.0673,35.5907 -24.1268,48.1466 -7.2008,17.87 -14.6329,46.1561 -18.5267,70.5115 -3.4454,21.5506 -6.5018,61.4167 -6.5143,84.9675 l -0.01,9.75 78.5,0 78.49997,0 0,-142.25 z m 882.2262,412.2381 c -10.2123,-2.1323 -19.2771,-9.6093 -24.0873,-19.8681 -2.2966,-4.8978 -2.6352,-6.905 -2.6352,-15.62 0,-8.9121 0.3026,-10.6161 2.7813,-15.6636 13.4692,-27.4278 51.9393,-26.7979 65.0391,1.0648 8.7512,18.6134 -0.8031,41.6265 -20.0814,48.3691 -6.0001,2.0986 -15.4812,2.8735 -21.0165,1.7178 z m 0.161,-128.352 c -8.671,-2.1854 -16.5176,-7.6972 -22.2776,-15.6486 -4.027,-5.5591 -5.2272,-10.2518 -5.2559,-20.5503 -0.019,-6.8617 0.4323,-9.374 2.4934,-13.876 3.3218,-7.2558 10.3061,-14.5754 17.0661,-17.8854 4.8559,-2.3777 6.6133,-2.6747 15.7776,-2.666 8.7645,0.01 11.0636,0.3657 15.3129,2.3802 12.2725,5.8181 19.2074,16.084 20.1805,29.8738 0.4356,6.1717 0.1642,9.7586 -1.0557,13.9551 -4.9443,17.0076 -25.1951,28.7134 -42.2413,24.4172 z m -1407.63756,-58.661 c -10.11089,-2.5466 -19.64573,-10.1762 -24.27121,-19.4214 -2.17941,-4.3561 -2.47471,-6.248 -2.47471,-15.8548 0,-9.7069 0.28262,-11.4751 2.56594,-16.0536 3.40211,-6.822 9.3472,-12.7674 16.27886,-16.2797 4.82475,-2.4448 7.06924,-2.9155 15.28448,-3.2055 8.89359,-0.314 10.06815,-0.125 15.37366,2.4728 7.39922,3.623 14.5854,10.4867 17.88661,17.0839 2.32148,4.6393 2.61045,6.3897 2.61045,15.8129 0,9.4601 -0.2869,11.1822 -2.67576,16.0608 -3.33588,6.8128 -10.68915,13.7965 -17.87068,16.9725 -6.20226,2.7429 -16.88761,3.878 -22.70764,2.4121 z m 1378.37356,-69.564 c -60.4549,-9.6674 -119.0297,-44.2253 -154.1414,-90.9401 -23.0514,-30.6692 -37.7594,-65.4751 -43.5126,-102.971 -2.0759,-13.5295 -2.3899,-43.2842 -0.591,-56 5.7363,-40.5484 20.4706,-76.2957 44.5154,-108 13.3125,-17.553303 39.5135,-42.026303 57.065,-53.301603 45.113,-28.9811 90.1187,-41.7029003 141.0451,-39.8694 36.8565,1.327 66.8433,9.1673 101,26.4072 36.0757,18.2086 68.0969,46.7703 89.9857,80.263803 38.649,59.1398 47.0709,131.0756 22.9141,195.7224 -25.5671,68.4208 -84.7771,121.6408 -158.3998,142.3751 -21.9097,6.1704 -29.879,7.1412 -61.5,7.492 -22.226,0.2465 -31.1912,-0.029 -38.3805,-1.1784 z m 62.6966,-96.9158 c 27.1029,-5.2061 53.4095,-19.3503 72.8857,-39.188 16.3871,-16.6913 26.6931,-35.3362 33.474,-60.5592 3.016,-11.2185 3.2887,-39.7436 0.5042,-52.7481 -11.0833,-51.7644 -52.2665,-91.7201 -105.68,-102.5301 -10.7885,-2.1835 -33.6603,-2.9777 -44.5,-1.5454 -59.3874,7.8472 -105.8209,50.6507 -116.1562,107.0755 -2.2799,12.4469 -2.224,34.4444 0.1156,45.5 5.211,24.6242 16.266,45.6931 33.4577,63.7646 22.7918,23.958 51.9952,38.0943 87.0829,42.1534 6.9986,0.8096 30.7049,-0.3646 38.8161,-1.9227 z"
     id="path3062"
     inkscape:connector-curvature="0" />
</svg>
